<?xml version="1.0" encoding="utf-8"?>
<!-- Svg Vector Icons : http://www.onlinewebfonts.com/icon -->
<!DOCTYPE svg PUBLIC "-//W3C//DTD SVG 1.1//EN" "http://www.w3.org/Graphics/SVG/1.1/DTD/svg11.dtd">
<svg version="1.1" xmlns="http://www.w3.org/2000/svg" xmlns:xlink="http://www.w3.org/1999/xlink" x="0px" y="0px" viewBox="0 0 1000 1000" enable-background="new 0 0 1000 1000" xml:space="preserve">
<metadata> Svg Vector Icons : http://www.onlinewebfonts.com/icon </metadata>
<g><g transform="translate(0.000000,511.000000) scale(0.100000,-0.100000)"><path d="M2637.2,4985.9c-148.1-40.2-234.8-93.1-338.4-211.5C2142.3,4596.8,2138,4565,2138,3666.2c0-936.9,2.1-945.4,198.8-1144.2c215.7-215.7,2.1-198.8,2667-198.8c2664.9,0,2451.3-16.9,2667,198.8c196.7,198.8,198.8,207.3,198.8,1144.2s-2.1,945.4-198.8,1144.2c-215.7,215.7,6.4,198.8-2624.7,203C3083.4,5017.6,2734.5,5013.4,2637.2,4985.9z M3371.1,4292.2c76.2-40.2,82.5-65.6,36-173.4c-27.5-69.8-38.1-76.1-88.8-63.5c-33.8,8.5-112.1,21.1-177.6,27.5c-141.7,12.7-194.6-23.3-184-129c6.3-59.2,23.3-74,179.8-150.2c268.6-131.1,344.7-222.1,344.7-412.4c0-186.1-95.2-317.3-272.8-376.5c-160.8-55-482.2-12.7-545.7,71.9c-19,25.4-16.9,55,8.5,126.9c33.8,101.5,59.2,110,160.7,59.2c95.2-50.8,274.9-48.6,330,0c55,50.8,59.2,162.9,8.4,207.3c-21.2,19-103.6,63.4-186.1,99.4c-232.7,105.8-306.7,196.7-306.7,376.5c0,245.3,194.6,395.5,486.4,380.7C3239.9,4332.4,3333,4311.2,3371.1,4292.2z M4094.4,4099.7v-243.2H4327h232.6v209.4c0,116.3,6.3,224.2,12.7,243.2c10.6,25.4,44.4,33.8,137.5,33.8h124.8l-4.2-649.3l-6.3-651.4l-114.2-6.3c-78.3-4.2-120.6,2.1-131.1,21.1c-10.6,14.8-19,143.8-19,287.6v258H4327h-230.5l-6.4-279.2l-6.3-281.3l-114.2-6.3c-78.3-4.2-120.6,2.1-131.1,21.1c-21.2,31.7-25.4,1201.3-6.3,1252.1c10.6,25.4,44.4,33.8,137.5,33.8h124.8V4099.7z M5894.2,4294.3c118.4-63.4,219.9-196.7,264.4-346.9c42.3-145.9,31.7-505.5-19-619.7c-97.3-224.2-264.4-344.7-469.5-342.6c-192.5,2.1-344.7,110-437.8,310.9c-42.3,90.9-48.6,139.6-48.6,359.5c0,220,6.3,268.6,48.6,359.6C5363.4,4300.7,5651,4421.2,5894.2,4294.3z M7101.9,4277.4c165-42.3,270.7-190.4,270.7-374.3c0-139.6-27.5-209.4-122.7-306.7c-84.6-86.7-228.4-141.7-368-141.7h-80.4v-198.8c0-110-6.3-213.6-12.7-232.6c-10.6-25.4-44.4-33.8-137.5-33.8h-124.8v645.1v645.1l48.6,10.6C6719.1,4321.8,6953.8,4317.6,7101.9,4277.4z"/><path d="M5617.2,4095.5c-139.6-52.9-224.2-262.3-205.2-497c42.3-507.6,497-497,537.2,12.7c21.1,247.5-84.6,463.2-236.9,486.4C5676.4,4104,5634.1,4104,5617.2,4095.5z"/><path d="M6801.6,3875.5V3681l90.9,14.8c137.5,21.2,192.5,71.9,200.9,186.1c6.3,84.6-2.1,103.6-50.7,141.7c-38.1,29.6-86.7,44.4-148,44.4h-93.1V3875.5z"/><path d="M1281.5,3981.3c-179.8-29.6-406.1-148.1-541.4-281.3c-137.5-139.6-251.7-363.8-283.4-562.6c-10.6-76.1-21.2-444.1-21.2-818.5v-683.1h338.4h338.4V2357c0,797.3,4.2,818.5,135.4,913.7c57.1,40.2,97.3,46.5,304.6,52.9l236.9,8.5v336.3v336.3l-194.6-2.1C1486.6,4000.3,1344.9,3991.9,1281.5,3981.3z"/><path d="M8218.6,3668.3V3332l239-8.5c205.2-6.3,245.4-12.7,302.4-52.9c131.1-95.2,135.4-116.3,135.4-913.7v-721.2h338.4h338.4v683.1c0,374.4-10.6,742.4-21.2,818.5c-31.7,198.8-145.9,423-283.4,562.6c-209.4,207.3-486.4,304.6-873.5,304.6h-175.5V3668.3z"/><path d="M336.1,1274.1c-93-27.5-190.3-133.2-219.9-236.9c-12.7-48.7-19-181.9-14.8-300.3c8.5-241.1,42.3-321.5,165-397.6l74-46.5h4663.5h4663.5l74,46.5c135.4,84.6,158.6,150.2,158.6,450.5s-23.3,365.9-158.6,450.5l-74,46.5l-4631.8,4.2C2245.9,1293.1,376.2,1286.8,336.1,1274.1z"/><path d="M435.5-1921.6c0-1178,8.5-1918.3,21.2-2005c69.8-433.6,412.4-776.2,846-846c190.4-29.6,7212.1-29.6,7402.4,0c198.8,31.7,423,145.9,562.6,283.4c137.5,139.6,251.7,363.8,283.4,562.6c12.7,86.7,21.2,826.9,21.2,2005V-56.2h-338.4h-338.4l-4.2-1928.9l-6.3-1931l-46.5-65.6C8736.8-4125.4,8865.8-4117,6571-4117H4496.2l-4.2,1571.4c-6.3,1527-8.4,1571.4-48.6,1639.1c-23.3,38.1-76.1,90.9-116.3,116.3c-74,46.5-80.4,46.5-1184.4,46.5c-1072.3,0-1112.5-2.1-1180.2-42.3c-38.1-23.3-90.9-76.2-116.3-116.3l-46.5-74l-6.3-1571.4l-4.2-1573.6l-239,8.5c-205.2,6.3-245.3,12.7-302.4,52.9c-141.7,101.5-135.4-8.5-135.4,2098V-56.2H773.9H435.5V-1921.6z"/><path d="M5412-756.3c-93-27.5-190.4-131.1-217.8-232.6c-14.8-55-21.1-391.3-16.9-977.1c6.3-875.6,6.3-894.6,52.9-966.6c25.4-40.2,78.3-93.1,116.3-116.3c67.7-40.2,107.9-42.3,1349.4-42.3c1277.5,0,1279.6,0,1353.6,46.5c40.2,25.4,93.1,78.2,116.3,116.3c40.2,67.7,42.3,107.9,42.3,1011c0,903.1-2.1,943.3-42.3,1010.9c-23.3,38.1-76.1,90.9-116.3,116.3c-74,46.5-80.4,46.5-1321.9,50.8C6002.1-737.2,5452.2-743.6,5412-756.3z"/></g></g>
</svg>